<svg width="65" height="67" viewBox="0 0 65 67" fill="none" xmlns="http://www.w3.org/2000/svg">
    <path fill-rule="evenodd" clip-rule="evenodd" d="M32.5 4.66766C17.0553 4.66766 4.53488 17.5547 4.53488 33.4516C4.53488 49.3485 17.0553 62.2355 32.5 62.2355C47.9447 62.2355 60.4651 49.3485 60.4651 33.4516C60.4651 17.5547 47.9447 4.66766 32.5 4.66766ZM0 33.4516C0 14.9768 14.5507 0 32.5 0C50.4493 0 65 14.9768 65 33.4516C65 51.9264 50.4493 66.9032 32.5 66.9032C14.5507 66.9032 0 51.9264 0 33.4516Z" fill="#FD9942"/>
    <path fill-rule="evenodd" clip-rule="evenodd" d="M32.5018 18.6699C33.7541 18.6699 34.7693 19.7148 34.7693 21.0038V33.4509C34.7693 34.7398 33.7541 35.7847 32.5018 35.7847C31.2495 35.7847 30.2344 34.7398 30.2344 33.4509V21.0038C30.2344 19.7148 31.2495 18.6699 32.5018 18.6699Z" fill="#FD9942"/>
    <path fill-rule="evenodd" clip-rule="evenodd" d="M30.2344 45.8983C30.2344 44.6093 31.2495 43.5645 32.5018 43.5645H32.5321C33.7843 43.5645 34.7995 44.6093 34.7995 45.8983C34.7995 47.1872 33.7843 48.2321 32.5321 48.2321H32.5018C31.2495 48.2321 30.2344 47.1872 30.2344 45.8983Z" fill="#FD9942"/>
</svg>
