<svg width="87" height="87" viewBox="0 0 87 87" fill="none" xmlns="http://www.w3.org/2000/svg">
    <g clip-path="url(#clip0_54357_9849)">
        <path d="M41.9654 81.2415C41.9495 81.2415 41.9335 81.2415 41.9177 81.2401C41.0088 81.1778 40.084 81.0796 39.1697 80.9496C38.7983 80.8966 38.5395 80.5528 38.5926 80.1814C38.6458 79.8099 38.9881 79.5525 39.3609 79.6043C40.2431 79.7289 41.1348 79.8245 42.0132 79.8855C42.3873 79.912 42.6686 80.2359 42.6421 80.6101C42.6183 80.9683 42.3197 81.2415 41.9654 81.2415ZM36.5916 80.4772C36.5439 80.4772 36.4948 80.4719 36.4469 80.4612C27.8594 78.6036 20.0732 73.7938 14.523 66.9166C14.2867 66.6245 14.3332 66.1975 14.6252 65.9611C14.9171 65.7249 15.3456 65.7715 15.5806 66.0646C20.9359 72.699 28.4486 77.3404 36.7335 79.1329C37.1011 79.2126 37.3334 79.5749 37.255 79.9411C37.186 80.2597 36.9048 80.4772 36.5916 80.4772ZM66.3788 74.5476C66.1637 74.5476 65.9514 74.4453 65.8201 74.2569C65.6051 73.949 65.6821 73.5243 65.9898 73.3096C66.7156 72.8052 67.4335 72.2666 68.1235 71.7108C68.4156 71.4732 68.844 71.521 69.079 71.813C69.3138 72.1048 69.2686 72.532 68.9767 72.7683C68.2615 73.3442 67.5185 73.9016 66.766 74.427C66.6481 74.509 66.5127 74.5476 66.3788 74.5476ZM70.6008 71.1388C70.4192 71.1388 70.2372 71.0671 70.1047 70.9237C69.8486 70.6477 69.8632 70.2178 70.1376 69.9631C76.3753 64.1528 80.4689 56.3281 81.6643 47.9317C81.7173 47.5615 82.0597 47.3052 82.4325 47.3557C82.8041 47.4087 83.0627 47.7511 83.0096 48.1227C81.7703 56.8271 77.5282 64.9368 71.0637 70.957C70.9339 71.079 70.7667 71.1388 70.6008 71.1388ZM13.4231 64.9978C13.2082 64.9978 12.9971 64.8971 12.8644 64.7059C12.3416 63.9548 11.8374 63.172 11.3691 62.3839C11.1768 62.0602 11.2828 61.6436 11.6053 61.4526C11.9304 61.2587 12.3457 61.3676 12.5368 61.6888C12.9893 62.4502 13.475 63.204 13.9805 63.931C14.1956 64.2389 14.1185 64.6609 13.8107 64.876C13.6925 64.9581 13.557 64.9978 13.4231 64.9978ZM82.6248 46.0063C82.6089 46.0063 82.5929 46.005 82.5757 46.005C82.2017 45.9785 81.9203 45.6534 81.9469 45.2792C82.0079 44.3996 82.0398 43.5034 82.0398 42.6135C82.0398 42.238 82.3436 41.9342 82.7191 41.9342C83.0947 41.9342 83.3985 42.238 83.3985 42.6135C83.3985 43.5343 83.3654 44.4633 83.3016 45.3747C83.2763 45.7329 82.9781 46.0063 82.6248 46.0063ZM7.01164 37.8866C6.9797 37.8866 6.94792 37.8846 6.91615 37.88C6.54453 37.827 6.28591 37.4832 6.33892 37.1118C6.46755 36.2022 6.63221 35.2866 6.82592 34.3903C6.90561 34.0241 7.26789 33.7932 7.63407 33.87C8.00025 33.9497 8.23236 34.3113 8.1542 34.6782C7.96711 35.5419 7.80926 36.4256 7.68453 37.3028C7.63526 37.6418 7.34469 37.8866 7.01164 37.8866ZM8.15794 32.581C8.09558 32.581 8.0305 32.5723 7.96694 32.5538C7.60739 32.4483 7.40025 32.0709 7.50646 31.7106C9.97576 23.2757 15.3297 15.8518 22.5797 10.8057C22.8863 10.5914 23.3109 10.6677 23.5258 10.9756C23.7394 11.2835 23.6638 11.7066 23.3559 11.9215C16.3592 16.7905 11.1938 23.9537 8.81061 32.0926C8.72327 32.3886 8.45258 32.581 8.15794 32.581ZM79.8266 28.7105C79.56 28.7105 79.3078 28.5526 79.1991 28.2913C78.8607 27.4753 78.4866 26.6599 78.09 25.8691C77.9214 25.534 78.0568 25.126 78.3924 24.9574C78.7294 24.7897 79.1367 24.9255 79.3039 25.2599C79.7166 26.0793 80.1027 26.9245 80.4544 27.771C80.5977 28.1173 80.4332 28.5148 80.0869 28.6587C80.0018 28.6938 79.9129 28.7105 79.8266 28.7105ZM77.3945 23.8633C77.1622 23.8633 76.9367 23.7447 76.8093 23.5316C72.4559 16.2133 65.6768 10.5508 57.7235 7.58853C57.3721 7.45719 57.1928 7.06637 57.323 6.7148C57.4555 6.36187 57.8484 6.18668 58.1974 6.3148C66.4413 9.3858 73.4657 15.2534 77.9771 22.8363C78.1695 23.1588 78.0635 23.5761 77.7408 23.7678C77.632 23.8329 77.5126 23.8633 77.3945 23.8633ZM25.2495 10.5727C25.0186 10.5727 24.7918 10.4539 24.6657 10.241C24.4733 9.91799 24.5795 9.50118 24.902 9.3095C25.6861 8.84307 26.5008 8.39651 27.3248 7.98258C27.6633 7.81623 28.0692 7.95013 28.2378 8.28453C28.4063 8.6203 28.2709 9.02811 27.9353 9.19685C27.1404 9.59633 26.3537 10.0274 25.5974 10.4772C25.4871 10.5423 25.3676 10.5727 25.2495 10.5727ZM55.3814 6.77529C55.3192 6.77529 55.2542 6.76662 55.1904 6.7481C54.3464 6.5007 53.4761 6.27963 52.6058 6.09135C52.2394 6.01166 52.0059 5.65007 52.0855 5.28388C52.1652 4.91702 52.5313 4.68491 52.8921 4.76324C53.7945 4.95814 54.6967 5.1872 55.5724 5.44395C55.9333 5.54947 56.139 5.92687 56.0343 6.2871C55.9469 6.58345 55.6761 6.77529 55.3814 6.77529Z" fill="#000070" fill-opacity="0.03"/>
        <path d="M26.0778 14.9956C26.1254 14.9369 26.1849 14.8845 26.2532 14.8423C27.0392 14.3659 27.8574 13.9171 28.6832 13.5054C29.0195 13.339 29.4273 13.4767 29.5945 13.8119C29.7617 14.1472 29.6239 14.5533 29.2888 14.7222C28.4952 15.1174 27.711 15.5474 26.957 16.0055C26.6358 16.1995 26.2184 16.0967 26.0235 15.7748C25.8715 15.5238 25.9023 15.2121 26.0778 14.9956ZM11.2501 35.3067C11.4097 35.1098 11.6719 35.0098 11.9351 35.0729C12.3006 35.1592 12.5258 35.5264 12.4386 35.891C12.2339 36.7501 12.0635 37.6283 11.9309 38.4998C11.8754 38.8715 11.5284 39.125 11.1564 39.0692C10.7867 39.0136 10.5313 38.6668 10.5868 38.2948C10.725 37.387 10.903 36.4722 11.117 35.5764C11.1421 35.4736 11.1883 35.3829 11.2501 35.3067ZM30.9423 12.5818C31.0134 12.4941 31.1058 12.4223 31.2193 12.3794C39.4527 9.11829 48.8075 9.28585 56.884 12.8378C57.2268 12.9878 57.383 13.3893 57.2311 13.7326C57.0771 14.0723 56.6796 14.2318 56.3364 14.0817C48.5902 10.6744 39.6181 10.5148 31.7189 13.6421C31.3701 13.7796 30.9752 13.6094 30.8367 13.2598C30.7443 13.0241 30.7927 12.7663 30.9423 12.5818ZM10.4342 40.6699C10.5687 40.504 10.78 40.4036 11.0088 40.4203C11.3833 40.4454 11.6661 40.7685 11.641 41.1429C11.0662 49.6243 13.95 58.1206 19.5513 64.4538C19.8015 64.7352 19.7774 65.1632 19.494 65.4136C19.2124 65.662 18.7833 65.6349 18.5342 65.3545C12.6923 58.7512 9.68673 49.893 10.2854 41.0517C10.2956 40.9061 10.3489 40.7751 10.4342 40.6699ZM58.5214 14.2268C58.7236 13.9773 59.0805 13.8996 59.3727 14.0577C60.1769 14.4963 60.9768 14.974 61.7506 15.4817C62.0645 15.6885 62.1521 16.1095 61.9471 16.4235C61.7218 16.7395 61.3192 16.8249 61.0062 16.619C60.2639 16.1315 59.495 15.6722 58.7239 15.2518C58.3939 15.0731 58.2724 14.6604 58.4511 14.3304C58.4707 14.2936 58.4954 14.2589 58.5214 14.2268ZM20.3988 66.434C20.4105 66.4196 20.4223 66.4051 20.435 66.3916C20.6943 66.1203 21.1254 66.1109 21.3968 66.3703C22.0331 66.9802 22.7044 67.5722 23.3909 68.1288C26.4781 70.6301 29.9424 72.5113 33.688 73.7202C34.0449 73.8353 34.2408 74.2182 34.1254 74.5754C34.0127 74.9316 33.6274 75.1283 33.2702 75.0128C29.3646 73.7527 25.7532 71.7915 22.5351 69.1841C21.8203 68.6046 21.1205 67.9876 20.457 67.3522C20.1993 67.1057 20.1783 66.7061 20.3988 66.434ZM35.5674 74.665C35.7261 74.4692 35.9873 74.3702 36.2495 74.4305C37.1081 74.6312 37.9867 74.7971 38.8599 74.9242C39.232 74.9781 39.4889 75.3231 39.4346 75.6942C39.3801 76.0668 39.0343 76.3228 38.6645 76.2691C37.7539 76.1354 36.8372 75.9628 35.9415 75.7541C35.5757 75.6692 35.3482 75.3039 35.4334 74.9387C35.4572 74.8354 35.5047 74.7423 35.5674 74.665ZM74.9393 36.4413C75.0345 36.3239 75.1712 36.2365 75.3319 36.2045C75.6998 36.1302 76.0579 36.3678 76.1322 36.7354C76.3146 37.6417 76.4609 38.5632 76.5666 39.4738C76.608 39.8473 76.3414 40.1846 75.9697 40.2267C75.5968 40.2695 75.2595 40.0029 75.2168 39.6298C75.1158 38.7569 74.9757 37.8731 74.8008 37.0037C74.7592 36.7973 74.8156 36.5939 74.9393 36.4413ZM75.5664 41.8335C75.6859 41.6862 75.8664 41.5898 76.0716 41.5822C76.4463 41.5699 76.7605 41.8638 76.7729 42.2396C77.0658 51.0864 73.7721 59.7619 67.6623 66.2274C67.4044 66.5001 66.9743 66.5134 66.702 66.2551C66.4289 65.9978 66.4248 65.5658 66.6742 65.2948C72.5374 59.0923 75.6956 50.7716 75.4143 42.2844C75.4091 42.1141 75.467 41.9561 75.5664 41.8335ZM62.5957 68.9524C62.63 68.9102 62.6695 68.872 62.7149 68.837C63.4159 68.3086 64.1073 67.7402 64.7681 67.1486C65.0476 66.8986 65.477 66.9221 65.7274 67.2019C65.9781 67.4804 65.9633 67.9074 65.6739 68.1613C64.9851 68.778 64.2645 69.3708 63.5331 69.9221C63.2332 70.1487 62.8071 70.0885 62.581 69.7892C62.3894 69.5347 62.4036 69.1895 62.5957 68.9524Z" fill="url(#paint0_linear_54357_9849)"/>
        <path d="M61.6368 39.1496C60.7996 38.3392 59.9608 37.5227 59.1204 36.7002C59.0967 35.5609 59.0671 34.4222 59.0313 33.284C58.9841 31.7595 58.3223 30.3051 57.1948 29.1753C56.0674 28.0455 54.6051 27.3908 53.079 27.3427C51.9382 27.3075 50.7974 27.2781 49.6566 27.2545C48.834 26.4172 48.0186 25.581 47.2102 24.7459C46.1159 23.6256 44.6993 22.9992 43.1921 23C41.685 23.0008 40.2676 23.6303 39.1803 24.7459C38.3678 25.5826 37.5497 26.4206 36.7262 27.26C35.5853 27.2831 34.4448 27.3125 33.3045 27.3482C30.1625 27.4554 27.4585 30.1554 27.3514 33.2887C27.3162 34.428 27.2865 35.5667 27.2623 36.7049C26.422 37.5269 25.5831 38.3431 24.7459 39.1536C23.6279 40.24 23 41.6582 23 43.1551C23 44.6521 23.624 46.0702 24.7459 47.1606C25.5831 47.9705 26.4235 48.786 27.2671 49.6069C27.2897 50.7462 27.3191 51.8857 27.3553 53.0255C27.4034 54.5523 28.0644 56.0028 29.191 57.1342C30.3177 58.2655 31.7792 58.9187 33.3076 58.966C34.4484 59.0022 35.5893 59.0319 36.7301 59.055C37.5526 59.8917 38.3696 60.7274 39.1811 61.562C40.2707 62.6823 41.6889 63.3087 43.1992 63.3079C44.7096 63.3071 46.1238 62.6823 47.2173 61.5628C48.0288 60.7266 48.8461 59.8893 49.6692 59.051C50.81 59.0274 51.9506 58.9977 53.0909 58.962C56.2321 58.8557 58.936 56.1556 59.0432 53.0215C59.0789 51.8833 59.1083 50.7451 59.1314 49.6069C59.9718 48.7844 60.8109 47.9679 61.6486 47.1575C62.7666 46.0718 63.3945 44.6552 63.3945 43.1528C63.3945 41.6503 62.7564 40.24 61.6368 39.1496Z" fill="#000070"/>
        <path d="M49.6566 27.2545C48.834 26.4172 48.0186 25.581 47.2102 24.7459C46.1159 23.6256 44.6993 22.9992 43.1921 23C41.685 23.0008 40.2676 23.6303 39.1803 24.7459C38.3678 25.5826 37.5497 26.4206 36.7262 27.26C35.5853 27.2831 34.4448 27.3125 33.3045 27.3482C30.1625 27.4554 27.4585 30.1554 27.3514 33.2887C27.3162 34.428 27.2865 35.5667 27.2623 36.7049C26.422 37.5269 25.5831 38.3431 24.7459 39.1536C23.6279 40.24 23 41.6582 23 43.1551C23 44.6521 23.624 46.0702 24.7459 47.1606C25.5831 47.9705 26.4235 48.786 27.2671 49.6069C27.287 50.5912 27.3133 51.5755 27.3459 52.5598C28.7319 52.8284 30.1405 52.9635 31.5523 52.9632C43.6775 52.9632 53.5069 43.1338 53.5069 31.0086C53.5057 29.7823 53.4023 28.5582 53.198 27.349L53.083 27.3427C51.9395 27.3075 50.7974 27.2781 49.6566 27.2545Z" fill="#000070"/>
        <path d="M53.2261 40.5993C49.8241 44.1344 46.3677 47.7483 42.9689 51.3331C42.6929 51.6256 42.3601 51.8587 41.991 52.0183C41.6219 52.1778 41.2241 52.2605 40.8219 52.2612H40.8086C40.4066 52.2585 40.0092 52.1755 39.6398 52.0169C39.2704 51.8583 38.9365 51.6274 38.6577 51.3378C36.8404 49.4611 35.0172 47.5913 33.1883 45.7283C32.9118 45.4501 32.6936 45.1196 32.5466 44.756C32.3996 44.3924 32.3268 44.003 32.3323 43.6109C32.3379 43.2187 32.4218 42.8316 32.5791 42.4723C32.7364 42.113 32.9639 41.7888 33.2482 41.5187C33.8212 40.9651 34.5896 40.66 35.3863 40.6699C36.183 40.6798 36.9436 41.0038 37.5027 41.5715C38.5894 42.6855 39.6774 43.8027 40.7668 44.9231C43.4652 42.0954 46.1771 39.2504 48.8463 36.4504C49.9793 35.2583 51.8694 35.2386 53.0843 36.3889C54.2991 37.5392 54.3677 39.4135 53.2261 40.5993Z" fill="white"/>
    </g>
    <defs>
        <linearGradient id="paint0_linear_54357_9849" x1="25.3086" y1="58.5352" x2="37.9631" y2="38.7625" gradientUnits="userSpaceOnUse">
            <stop offset="0.23241" stop-color="#000070"/>
            <stop offset="1" stop-color="#000070" stop-opacity="0.12"/>
        </linearGradient>
        <clipPath id="clip0_54357_9849">
            <rect width="87" height="87" fill="white"/>
        </clipPath>
    </defs>
</svg>
